<mxfile host="Electron" agent="Mozilla/5.0 (Macintosh; Intel Mac OS X 10_15_7) AppleWebKit/537.36 (KHTML, like Gecko) draw.io/24.7.5 Chrome/126.0.6478.183 Electron/31.3.0 Safari/537.36" version="24.7.5">
  <diagram name="페이지-1" id="yrE24eTEqUnzuHWUW1WH">
    <mxGraphModel dx="1183" dy="763" grid="1" gridSize="10" guides="1" tooltips="1" connect="1" arrows="1" fold="1" page="1" pageScale="1" pageWidth="827" pageHeight="1169" math="0" shadow="0">
      <root>
        <mxCell id="0" />
        <mxCell id="1" parent="0" />
        <mxCell id="SQ1W5SFDqFG-9YqsSDNN-85" value="" style="rounded=0;whiteSpace=wrap;html=1;" parent="1" vertex="1">
          <mxGeometry x="380" y="30" width="710" height="670" as="geometry" />
        </mxCell>
        <mxCell id="9DBe7D8bFh7_J25TX_2T-15" value="" style="rounded=0;whiteSpace=wrap;html=1;dashed=1;" vertex="1" parent="1">
          <mxGeometry x="460" y="40" width="610" height="650" as="geometry" />
        </mxCell>
        <mxCell id="SQ1W5SFDqFG-9YqsSDNN-88" value="" style="rounded=1;whiteSpace=wrap;html=1;" parent="1" vertex="1">
          <mxGeometry x="389" y="160" width="50" height="410" as="geometry" />
        </mxCell>
        <mxCell id="SQ1W5SFDqFG-9YqsSDNN-8" value="" style="rounded=0;whiteSpace=wrap;html=1;" parent="1" vertex="1">
          <mxGeometry x="490" y="75" width="560" height="600" as="geometry" />
        </mxCell>
        <mxCell id="SQ1W5SFDqFG-9YqsSDNN-1" value="" style="sketch=0;outlineConnect=0;fontColor=#232F3E;gradientColor=none;fillColor=#232F3D;strokeColor=none;dashed=0;verticalLabelPosition=bottom;verticalAlign=top;align=center;html=1;fontSize=12;fontStyle=0;aspect=fixed;pointerEvents=1;shape=mxgraph.aws4.source_code;" parent="1" vertex="1">
          <mxGeometry x="130" y="200" width="51.15" height="70" as="geometry" />
        </mxCell>
        <mxCell id="SQ1W5SFDqFG-9YqsSDNN-3" value="" style="sketch=0;outlineConnect=0;fontColor=#232F3E;gradientColor=none;fillColor=#232F3D;strokeColor=none;dashed=0;verticalLabelPosition=bottom;verticalAlign=top;align=center;html=1;fontSize=12;fontStyle=0;aspect=fixed;pointerEvents=1;shape=mxgraph.aws4.source_code;" parent="1" vertex="1">
          <mxGeometry x="130" y="320" width="51.15" height="70" as="geometry" />
        </mxCell>
        <mxCell id="SQ1W5SFDqFG-9YqsSDNN-4" value="" style="sketch=0;outlineConnect=0;fontColor=#232F3E;gradientColor=none;fillColor=#232F3D;strokeColor=none;dashed=0;verticalLabelPosition=bottom;verticalAlign=top;align=center;html=1;fontSize=12;fontStyle=0;aspect=fixed;pointerEvents=1;shape=mxgraph.aws4.source_code;" parent="1" vertex="1">
          <mxGeometry x="130" y="460" width="51.15" height="70" as="geometry" />
        </mxCell>
        <mxCell id="SQ1W5SFDqFG-9YqsSDNN-6" value="&lt;b&gt;&lt;font style=&quot;font-size: 13px;&quot;&gt;Request Session Control&lt;/font&gt;&lt;/b&gt;" style="text;html=1;align=center;verticalAlign=middle;resizable=0;points=[];autosize=1;fillColor=#ffffff;strokeColor=none;" parent="1" vertex="1">
          <mxGeometry x="185" y="200" width="180" height="30" as="geometry" />
        </mxCell>
        <mxCell id="SQ1W5SFDqFG-9YqsSDNN-35" value="" style="rounded=1;whiteSpace=wrap;html=1;" parent="1" vertex="1">
          <mxGeometry x="520" y="510" width="520" height="140" as="geometry" />
        </mxCell>
        <mxCell id="SQ1W5SFDqFG-9YqsSDNN-36" value="" style="shape=image;verticalLabelPosition=bottom;labelBackgroundColor=default;verticalAlign=top;aspect=fixed;imageAspect=0;image=https://static-00.iconduck.com/assets.00/puppeteer-icon-1371x2048-otngklvq.png;" parent="1" vertex="1">
          <mxGeometry x="534.18" y="541" width="58.56" height="87.5" as="geometry" />
        </mxCell>
        <mxCell id="SQ1W5SFDqFG-9YqsSDNN-37" value="" style="rounded=1;whiteSpace=wrap;html=1;" parent="1" vertex="1">
          <mxGeometry x="690" y="532.25" width="340" height="105" as="geometry" />
        </mxCell>
        <mxCell id="SQ1W5SFDqFG-9YqsSDNN-38" value="" style="shape=image;verticalLabelPosition=bottom;labelBackgroundColor=default;verticalAlign=top;aspect=fixed;imageAspect=0;image=https://cdn-icons-png.flaticon.com/512/6649/6649740.png;" parent="1" vertex="1">
          <mxGeometry x="700" y="554.75" width="60" height="60" as="geometry" />
        </mxCell>
        <mxCell id="SQ1W5SFDqFG-9YqsSDNN-39" value="" style="shape=image;verticalLabelPosition=bottom;labelBackgroundColor=default;verticalAlign=top;aspect=fixed;imageAspect=0;image=https://cdn-icons-png.flaticon.com/512/6649/6649740.png;" parent="1" vertex="1">
          <mxGeometry x="770" y="554.75" width="60" height="60" as="geometry" />
        </mxCell>
        <mxCell id="SQ1W5SFDqFG-9YqsSDNN-40" value="" style="shape=image;verticalLabelPosition=bottom;labelBackgroundColor=default;verticalAlign=top;aspect=fixed;imageAspect=0;image=https://cdn-icons-png.flaticon.com/512/6649/6649740.png;" parent="1" vertex="1">
          <mxGeometry x="960" y="552.25" width="60" height="60" as="geometry" />
        </mxCell>
        <mxCell id="SQ1W5SFDqFG-9YqsSDNN-52" value="&lt;b&gt;&lt;font style=&quot;font-size: 14px;&quot;&gt;Session Pool&lt;/font&gt;&lt;/b&gt;" style="text;html=1;align=center;verticalAlign=middle;resizable=0;points=[];autosize=1;strokeColor=none;fillColor=none;" parent="1" vertex="1">
          <mxGeometry x="690" y="532.25" width="110" height="30" as="geometry" />
        </mxCell>
        <mxCell id="SQ1W5SFDqFG-9YqsSDNN-53" value="&lt;b&gt;&lt;font style=&quot;font-size: 15px;&quot;&gt;Pool&lt;/font&gt;&lt;/b&gt;" style="text;html=1;align=center;verticalAlign=middle;resizable=0;points=[];autosize=1;strokeColor=none;fillColor=none;" parent="1" vertex="1">
          <mxGeometry x="520" y="510" width="60" height="30" as="geometry" />
        </mxCell>
        <mxCell id="SQ1W5SFDqFG-9YqsSDNN-64" value="" style="rounded=1;whiteSpace=wrap;html=1;" parent="1" vertex="1">
          <mxGeometry x="520" y="100" width="520" height="140" as="geometry" />
        </mxCell>
        <mxCell id="SQ1W5SFDqFG-9YqsSDNN-65" value="" style="shape=image;verticalLabelPosition=bottom;labelBackgroundColor=default;verticalAlign=top;aspect=fixed;imageAspect=0;image=https://static-00.iconduck.com/assets.00/puppeteer-icon-1371x2048-otngklvq.png;" parent="1" vertex="1">
          <mxGeometry x="534.18" y="131" width="58.56" height="87.5" as="geometry" />
        </mxCell>
        <mxCell id="SQ1W5SFDqFG-9YqsSDNN-66" value="" style="rounded=1;whiteSpace=wrap;html=1;" parent="1" vertex="1">
          <mxGeometry x="690" y="122.25" width="340" height="105" as="geometry" />
        </mxCell>
        <mxCell id="SQ1W5SFDqFG-9YqsSDNN-67" value="" style="shape=image;verticalLabelPosition=bottom;labelBackgroundColor=default;verticalAlign=top;aspect=fixed;imageAspect=0;image=https://cdn-icons-png.flaticon.com/512/6649/6649740.png;" parent="1" vertex="1">
          <mxGeometry x="700" y="144.75" width="60" height="60" as="geometry" />
        </mxCell>
        <mxCell id="SQ1W5SFDqFG-9YqsSDNN-68" value="" style="shape=image;verticalLabelPosition=bottom;labelBackgroundColor=default;verticalAlign=top;aspect=fixed;imageAspect=0;image=https://cdn-icons-png.flaticon.com/512/6649/6649740.png;" parent="1" vertex="1">
          <mxGeometry x="770" y="144.75" width="60" height="60" as="geometry" />
        </mxCell>
        <mxCell id="SQ1W5SFDqFG-9YqsSDNN-69" value="" style="shape=image;verticalLabelPosition=bottom;labelBackgroundColor=default;verticalAlign=top;aspect=fixed;imageAspect=0;image=https://cdn-icons-png.flaticon.com/512/6649/6649740.png;" parent="1" vertex="1">
          <mxGeometry x="960" y="144.75" width="60" height="60" as="geometry" />
        </mxCell>
        <mxCell id="SQ1W5SFDqFG-9YqsSDNN-70" value="&lt;font style=&quot;font-size: 11px;&quot;&gt;. . . Pool Scale Out ...&lt;/font&gt;" style="text;html=1;align=center;verticalAlign=middle;resizable=0;points=[];autosize=1;strokeColor=none;fillColor=none;" parent="1" vertex="1">
          <mxGeometry x="830" y="162.25" width="130" height="30" as="geometry" />
        </mxCell>
        <mxCell id="SQ1W5SFDqFG-9YqsSDNN-72" value="&lt;b&gt;&lt;font style=&quot;font-size: 14px;&quot;&gt;Session Pool&lt;/font&gt;&lt;/b&gt;" style="text;html=1;align=center;verticalAlign=middle;resizable=0;points=[];autosize=1;strokeColor=none;fillColor=none;" parent="1" vertex="1">
          <mxGeometry x="690" y="122.25" width="110" height="30" as="geometry" />
        </mxCell>
        <mxCell id="SQ1W5SFDqFG-9YqsSDNN-73" value="&lt;b&gt;&lt;font style=&quot;font-size: 15px;&quot;&gt;Pool&lt;/font&gt;&lt;/b&gt;" style="text;html=1;align=center;verticalAlign=middle;resizable=0;points=[];autosize=1;strokeColor=none;fillColor=none;" parent="1" vertex="1">
          <mxGeometry x="520" y="100" width="60" height="30" as="geometry" />
        </mxCell>
        <mxCell id="SQ1W5SFDqFG-9YqsSDNN-74" value="" style="rounded=1;whiteSpace=wrap;html=1;" parent="1" vertex="1">
          <mxGeometry x="520" y="260" width="520" height="140" as="geometry" />
        </mxCell>
        <mxCell id="SQ1W5SFDqFG-9YqsSDNN-75" value="" style="shape=image;verticalLabelPosition=bottom;labelBackgroundColor=default;verticalAlign=top;aspect=fixed;imageAspect=0;image=https://static-00.iconduck.com/assets.00/puppeteer-icon-1371x2048-otngklvq.png;" parent="1" vertex="1">
          <mxGeometry x="534.18" y="291" width="58.56" height="87.5" as="geometry" />
        </mxCell>
        <mxCell id="SQ1W5SFDqFG-9YqsSDNN-76" value="" style="rounded=1;whiteSpace=wrap;html=1;" parent="1" vertex="1">
          <mxGeometry x="690" y="282.25" width="340" height="105" as="geometry" />
        </mxCell>
        <mxCell id="SQ1W5SFDqFG-9YqsSDNN-77" value="" style="shape=image;verticalLabelPosition=bottom;labelBackgroundColor=default;verticalAlign=top;aspect=fixed;imageAspect=0;image=https://cdn-icons-png.flaticon.com/512/6649/6649740.png;" parent="1" vertex="1">
          <mxGeometry x="700" y="304.75" width="60" height="60" as="geometry" />
        </mxCell>
        <mxCell id="SQ1W5SFDqFG-9YqsSDNN-78" value="" style="shape=image;verticalLabelPosition=bottom;labelBackgroundColor=default;verticalAlign=top;aspect=fixed;imageAspect=0;image=https://cdn-icons-png.flaticon.com/512/6649/6649740.png;" parent="1" vertex="1">
          <mxGeometry x="770" y="304.75" width="60" height="60" as="geometry" />
        </mxCell>
        <mxCell id="SQ1W5SFDqFG-9YqsSDNN-79" value="" style="shape=image;verticalLabelPosition=bottom;labelBackgroundColor=default;verticalAlign=top;aspect=fixed;imageAspect=0;image=https://cdn-icons-png.flaticon.com/512/6649/6649740.png;" parent="1" vertex="1">
          <mxGeometry x="960" y="304.75" width="60" height="60" as="geometry" />
        </mxCell>
        <mxCell id="SQ1W5SFDqFG-9YqsSDNN-82" value="&lt;b&gt;&lt;font style=&quot;font-size: 14px;&quot;&gt;Session Pool&lt;/font&gt;&lt;/b&gt;" style="text;html=1;align=center;verticalAlign=middle;resizable=0;points=[];autosize=1;strokeColor=none;fillColor=none;" parent="1" vertex="1">
          <mxGeometry x="690" y="282.25" width="110" height="30" as="geometry" />
        </mxCell>
        <mxCell id="SQ1W5SFDqFG-9YqsSDNN-83" value="&lt;b&gt;&lt;font style=&quot;font-size: 15px;&quot;&gt;Pool&lt;/font&gt;&lt;/b&gt;" style="text;html=1;align=center;verticalAlign=middle;resizable=0;points=[];autosize=1;strokeColor=none;fillColor=none;" parent="1" vertex="1">
          <mxGeometry x="520" y="260" width="60" height="30" as="geometry" />
        </mxCell>
        <mxCell id="SQ1W5SFDqFG-9YqsSDNN-84" value="&lt;font style=&quot;font-size: 15px;&quot;&gt;&lt;b&gt;. . . Pool Scale Out . . .&lt;/b&gt;&lt;/font&gt;" style="text;html=1;align=center;verticalAlign=middle;resizable=0;points=[];autosize=1;strokeColor=none;fillColor=none;" parent="1" vertex="1">
          <mxGeometry x="665" y="430" width="180" height="30" as="geometry" />
        </mxCell>
        <mxCell id="SQ1W5SFDqFG-9YqsSDNN-87" value="&lt;b style=&quot;font-size: 24px;&quot;&gt;A&lt;br&gt;&lt;br&gt;&lt;br&gt;&lt;br&gt;P&lt;br&gt;&lt;br&gt;&lt;br&gt;&lt;br&gt;I&lt;/b&gt;" style="text;html=1;align=center;verticalAlign=middle;whiteSpace=wrap;rounded=0;" parent="1" vertex="1">
          <mxGeometry x="384" y="338.5" width="60" height="30" as="geometry" />
        </mxCell>
        <mxCell id="SQ1W5SFDqFG-9YqsSDNN-89" value="" style="endArrow=classic;startArrow=classic;html=1;rounded=0;exitX=1;exitY=0.5;exitDx=0;exitDy=0;entryX=0;entryY=0.5;entryDx=0;entryDy=0;" parent="1" source="SQ1W5SFDqFG-9YqsSDNN-87" target="SQ1W5SFDqFG-9YqsSDNN-64" edge="1">
          <mxGeometry width="50" height="50" relative="1" as="geometry">
            <mxPoint x="460" y="378.5" as="sourcePoint" />
            <mxPoint x="510" y="328.5" as="targetPoint" />
          </mxGeometry>
        </mxCell>
        <mxCell id="SQ1W5SFDqFG-9YqsSDNN-90" value="" style="endArrow=classic;startArrow=classic;html=1;rounded=0;exitX=1;exitY=0.5;exitDx=0;exitDy=0;entryX=0;entryY=0.5;entryDx=0;entryDy=0;" parent="1" source="SQ1W5SFDqFG-9YqsSDNN-87" target="SQ1W5SFDqFG-9YqsSDNN-74" edge="1">
          <mxGeometry width="50" height="50" relative="1" as="geometry">
            <mxPoint x="460" y="440" as="sourcePoint" />
            <mxPoint x="510" y="390" as="targetPoint" />
          </mxGeometry>
        </mxCell>
        <mxCell id="SQ1W5SFDqFG-9YqsSDNN-91" value="" style="endArrow=classic;startArrow=classic;html=1;rounded=0;exitX=1;exitY=0.5;exitDx=0;exitDy=0;entryX=0;entryY=0.5;entryDx=0;entryDy=0;" parent="1" source="SQ1W5SFDqFG-9YqsSDNN-87" target="SQ1W5SFDqFG-9YqsSDNN-35" edge="1">
          <mxGeometry width="50" height="50" relative="1" as="geometry">
            <mxPoint x="460" y="440" as="sourcePoint" />
            <mxPoint x="510" y="390" as="targetPoint" />
          </mxGeometry>
        </mxCell>
        <mxCell id="SQ1W5SFDqFG-9YqsSDNN-92" value="" style="endArrow=classic;startArrow=classic;html=1;rounded=0;entryX=0;entryY=0.5;entryDx=0;entryDy=0;" parent="1" source="SQ1W5SFDqFG-9YqsSDNN-1" target="SQ1W5SFDqFG-9YqsSDNN-87" edge="1">
          <mxGeometry width="50" height="50" relative="1" as="geometry">
            <mxPoint x="430" y="440" as="sourcePoint" />
            <mxPoint x="480" y="390" as="targetPoint" />
          </mxGeometry>
        </mxCell>
        <mxCell id="SQ1W5SFDqFG-9YqsSDNN-93" value="" style="endArrow=classic;startArrow=classic;html=1;rounded=0;entryX=0;entryY=0.5;entryDx=0;entryDy=0;" parent="1" source="SQ1W5SFDqFG-9YqsSDNN-3" target="SQ1W5SFDqFG-9YqsSDNN-87" edge="1">
          <mxGeometry width="50" height="50" relative="1" as="geometry">
            <mxPoint x="430" y="440" as="sourcePoint" />
            <mxPoint x="480" y="390" as="targetPoint" />
          </mxGeometry>
        </mxCell>
        <mxCell id="SQ1W5SFDqFG-9YqsSDNN-94" value="" style="endArrow=classic;startArrow=classic;html=1;rounded=0;entryX=0;entryY=0.5;entryDx=0;entryDy=0;" parent="1" source="SQ1W5SFDqFG-9YqsSDNN-4" target="SQ1W5SFDqFG-9YqsSDNN-87" edge="1">
          <mxGeometry width="50" height="50" relative="1" as="geometry">
            <mxPoint x="430" y="440" as="sourcePoint" />
            <mxPoint x="480" y="390" as="targetPoint" />
          </mxGeometry>
        </mxCell>
        <mxCell id="9DBe7D8bFh7_J25TX_2T-1" value="&lt;font style=&quot;font-size: 11px;&quot;&gt;. . . Pool Scale Out ...&lt;/font&gt;" style="text;html=1;align=center;verticalAlign=middle;resizable=0;points=[];autosize=1;strokeColor=none;fillColor=none;" vertex="1" parent="1">
          <mxGeometry x="830" y="322.25" width="130" height="30" as="geometry" />
        </mxCell>
        <mxCell id="9DBe7D8bFh7_J25TX_2T-2" value="&lt;font style=&quot;font-size: 11px;&quot;&gt;. . . Pool Scale Out ...&lt;/font&gt;" style="text;html=1;align=center;verticalAlign=middle;resizable=0;points=[];autosize=1;strokeColor=none;fillColor=none;" vertex="1" parent="1">
          <mxGeometry x="830" y="572.25" width="130" height="30" as="geometry" />
        </mxCell>
        <mxCell id="9DBe7D8bFh7_J25TX_2T-5" value="&lt;b&gt;&lt;font style=&quot;font-size: 15px;&quot;&gt;Pool&lt;/font&gt;&lt;/b&gt;" style="text;html=1;align=center;verticalAlign=middle;resizable=0;points=[];autosize=1;strokeColor=none;fillColor=none;" vertex="1" parent="1">
          <mxGeometry x="490" y="75" width="60" height="30" as="geometry" />
        </mxCell>
        <mxCell id="9DBe7D8bFh7_J25TX_2T-6" value="Interface" style="rounded=1;whiteSpace=wrap;html=1;" vertex="1" parent="1">
          <mxGeometry x="640" y="124.75" width="50" height="100" as="geometry" />
        </mxCell>
        <mxCell id="9DBe7D8bFh7_J25TX_2T-7" value="Interface" style="rounded=1;whiteSpace=wrap;html=1;" vertex="1" parent="1">
          <mxGeometry x="640" y="284.75" width="50" height="100" as="geometry" />
        </mxCell>
        <mxCell id="9DBe7D8bFh7_J25TX_2T-8" value="Interface" style="rounded=1;whiteSpace=wrap;html=1;" vertex="1" parent="1">
          <mxGeometry x="640" y="534.75" width="50" height="100" as="geometry" />
        </mxCell>
        <mxCell id="9DBe7D8bFh7_J25TX_2T-10" value="" style="endArrow=classic;startArrow=classic;html=1;rounded=0;entryX=0;entryY=0.5;entryDx=0;entryDy=0;exitX=1;exitY=0.5;exitDx=0;exitDy=0;" edge="1" parent="1" source="SQ1W5SFDqFG-9YqsSDNN-36" target="9DBe7D8bFh7_J25TX_2T-8">
          <mxGeometry width="50" height="50" relative="1" as="geometry">
            <mxPoint x="270" y="662.5" as="sourcePoint" />
            <mxPoint x="310" y="663" as="targetPoint" />
          </mxGeometry>
        </mxCell>
        <mxCell id="9DBe7D8bFh7_J25TX_2T-11" value="" style="endArrow=classic;startArrow=classic;html=1;rounded=0;exitX=1;exitY=0.5;exitDx=0;exitDy=0;entryX=0;entryY=0.5;entryDx=0;entryDy=0;" edge="1" parent="1" source="SQ1W5SFDqFG-9YqsSDNN-75" target="9DBe7D8bFh7_J25TX_2T-7">
          <mxGeometry width="50" height="50" relative="1" as="geometry">
            <mxPoint x="640" y="450" as="sourcePoint" />
            <mxPoint x="690" y="400" as="targetPoint" />
          </mxGeometry>
        </mxCell>
        <mxCell id="9DBe7D8bFh7_J25TX_2T-12" value="" style="endArrow=classic;startArrow=classic;html=1;rounded=0;exitX=1;exitY=0.5;exitDx=0;exitDy=0;entryX=0;entryY=0.5;entryDx=0;entryDy=0;" edge="1" parent="1" source="SQ1W5SFDqFG-9YqsSDNN-65" target="9DBe7D8bFh7_J25TX_2T-6">
          <mxGeometry width="50" height="50" relative="1" as="geometry">
            <mxPoint x="640" y="450" as="sourcePoint" />
            <mxPoint x="690" y="400" as="targetPoint" />
          </mxGeometry>
        </mxCell>
        <mxCell id="9DBe7D8bFh7_J25TX_2T-17" value="&lt;b&gt;&lt;font style=&quot;font-size: 15px;&quot;&gt;Resource Threshold Watcher&lt;/font&gt;&lt;/b&gt;" style="text;html=1;align=center;verticalAlign=middle;resizable=0;points=[];autosize=1;strokeColor=none;fillColor=none;" vertex="1" parent="1">
          <mxGeometry x="460" y="40" width="230" height="30" as="geometry" />
        </mxCell>
      </root>
    </mxGraphModel>
  </diagram>
</mxfile>
